<mxfile host="app.diagrams.net" modified="2023-10-03T09:32:47.492Z" agent="Mozilla/5.0 (X11; Linux x86_64) AppleWebKit/537.36 (KHTML, like Gecko) Chrome/117.0.0.0 Safari/537.36" etag="OUNdrFAYnpUiTcRo6TxP" version="22.0.1" type="github">
  <diagram id="C5RBs43oDa-KdzZeNtuy" name="Page-1">
    <mxGraphModel dx="1434" dy="771" grid="1" gridSize="10" guides="1" tooltips="1" connect="1" arrows="1" fold="1" page="1" pageScale="1" pageWidth="827" pageHeight="1169" math="0" shadow="0">
      <root>
        <mxCell id="WIyWlLk6GJQsqaUBKTNV-0" />
        <mxCell id="WIyWlLk6GJQsqaUBKTNV-1" parent="WIyWlLk6GJQsqaUBKTNV-0" />
        <mxCell id="a4lBw5MX-ri9Q4Iuq_kU-3" value="" style="edgeStyle=orthogonalEdgeStyle;rounded=0;orthogonalLoop=1;jettySize=auto;html=1;" edge="1" parent="WIyWlLk6GJQsqaUBKTNV-1" source="WIyWlLk6GJQsqaUBKTNV-3" target="a4lBw5MX-ri9Q4Iuq_kU-2">
          <mxGeometry relative="1" as="geometry" />
        </mxCell>
        <mxCell id="WIyWlLk6GJQsqaUBKTNV-3" value="&lt;font style=&quot;vertical-align: inherit;&quot;&gt;&lt;font style=&quot;vertical-align: inherit;&quot;&gt;&lt;font style=&quot;vertical-align: inherit;&quot;&gt;&lt;font style=&quot;vertical-align: inherit;&quot;&gt;&lt;font style=&quot;vertical-align: inherit;&quot;&gt;&lt;font style=&quot;vertical-align: inherit;&quot;&gt;Создать корабль(Size, type)&lt;/font&gt;&lt;/font&gt;&lt;/font&gt;&lt;/font&gt;&lt;/font&gt;&lt;/font&gt;" style="rounded=1;whiteSpace=wrap;html=1;fontSize=12;glass=0;strokeWidth=1;shadow=0;" parent="WIyWlLk6GJQsqaUBKTNV-1" vertex="1">
          <mxGeometry x="310" y="70" width="120" height="40" as="geometry" />
        </mxCell>
        <mxCell id="a4lBw5MX-ri9Q4Iuq_kU-7" value="" style="edgeStyle=orthogonalEdgeStyle;rounded=0;orthogonalLoop=1;jettySize=auto;html=1;entryX=0.5;entryY=0;entryDx=0;entryDy=0;" edge="1" parent="WIyWlLk6GJQsqaUBKTNV-1" source="a4lBw5MX-ri9Q4Iuq_kU-0" target="a4lBw5MX-ri9Q4Iuq_kU-2">
          <mxGeometry relative="1" as="geometry">
            <Array as="points">
              <mxPoint x="580" y="140" />
            </Array>
          </mxGeometry>
        </mxCell>
        <mxCell id="a4lBw5MX-ri9Q4Iuq_kU-0" value="&lt;font style=&quot;vertical-align: inherit;&quot;&gt;&lt;font style=&quot;vertical-align: inherit;&quot;&gt;Сreate Tunnel&lt;/font&gt;&lt;/font&gt;" style="rounded=1;whiteSpace=wrap;html=1;" vertex="1" parent="WIyWlLk6GJQsqaUBKTNV-1">
          <mxGeometry x="480" y="70" width="120" height="40" as="geometry" />
        </mxCell>
        <mxCell id="a4lBw5MX-ri9Q4Iuq_kU-9" value="" style="edgeStyle=orthogonalEdgeStyle;rounded=0;orthogonalLoop=1;jettySize=auto;html=1;entryX=0.5;entryY=0;entryDx=0;entryDy=0;" edge="1" parent="WIyWlLk6GJQsqaUBKTNV-1" source="a4lBw5MX-ri9Q4Iuq_kU-1" target="a4lBw5MX-ri9Q4Iuq_kU-2">
          <mxGeometry relative="1" as="geometry">
            <Array as="points">
              <mxPoint x="190" y="140" />
            </Array>
          </mxGeometry>
        </mxCell>
        <mxCell id="a4lBw5MX-ri9Q4Iuq_kU-1" value="&lt;font style=&quot;vertical-align: inherit;&quot;&gt;&lt;font style=&quot;vertical-align: inherit;&quot;&gt;Сreate PierLoader&lt;/font&gt;&lt;/font&gt;" style="rounded=1;whiteSpace=wrap;html=1;" vertex="1" parent="WIyWlLk6GJQsqaUBKTNV-1">
          <mxGeometry x="130" y="70" width="120" height="40" as="geometry" />
        </mxCell>
        <mxCell id="a4lBw5MX-ri9Q4Iuq_kU-5" value="" style="edgeStyle=orthogonalEdgeStyle;rounded=0;orthogonalLoop=1;jettySize=auto;html=1;entryX=0.5;entryY=0;entryDx=0;entryDy=0;" edge="1" parent="WIyWlLk6GJQsqaUBKTNV-1" source="a4lBw5MX-ri9Q4Iuq_kU-2" target="a4lBw5MX-ri9Q4Iuq_kU-10">
          <mxGeometry relative="1" as="geometry">
            <mxPoint x="510" y="260" as="targetPoint" />
            <Array as="points">
              <mxPoint x="430" y="180" />
              <mxPoint x="430" y="260" />
            </Array>
          </mxGeometry>
        </mxCell>
        <mxCell id="a4lBw5MX-ri9Q4Iuq_kU-29" value="" style="edgeStyle=orthogonalEdgeStyle;rounded=0;orthogonalLoop=1;jettySize=auto;html=1;" edge="1" parent="WIyWlLk6GJQsqaUBKTNV-1" source="a4lBw5MX-ri9Q4Iuq_kU-2" target="a4lBw5MX-ri9Q4Iuq_kU-28">
          <mxGeometry relative="1" as="geometry" />
        </mxCell>
        <mxCell id="a4lBw5MX-ri9Q4Iuq_kU-2" value="Ship.count &amp;lt; 5" style="rhombus;whiteSpace=wrap;html=1;rounded=1;glass=0;strokeWidth=1;shadow=0;" vertex="1" parent="WIyWlLk6GJQsqaUBKTNV-1">
          <mxGeometry x="320" y="140" width="100" height="80" as="geometry" />
        </mxCell>
        <mxCell id="a4lBw5MX-ri9Q4Iuq_kU-12" value="" style="edgeStyle=orthogonalEdgeStyle;rounded=0;orthogonalLoop=1;jettySize=auto;html=1;" edge="1" parent="WIyWlLk6GJQsqaUBKTNV-1" source="a4lBw5MX-ri9Q4Iuq_kU-10" target="a4lBw5MX-ri9Q4Iuq_kU-11">
          <mxGeometry relative="1" as="geometry" />
        </mxCell>
        <mxCell id="a4lBw5MX-ri9Q4Iuq_kU-26" style="edgeStyle=orthogonalEdgeStyle;rounded=0;orthogonalLoop=1;jettySize=auto;html=1;entryX=0.5;entryY=0;entryDx=0;entryDy=0;" edge="1" parent="WIyWlLk6GJQsqaUBKTNV-1" source="a4lBw5MX-ri9Q4Iuq_kU-10" target="WIyWlLk6GJQsqaUBKTNV-3">
          <mxGeometry relative="1" as="geometry">
            <Array as="points">
              <mxPoint x="50" y="290" />
              <mxPoint x="50" y="40" />
              <mxPoint x="370" y="40" />
            </Array>
          </mxGeometry>
        </mxCell>
        <mxCell id="a4lBw5MX-ri9Q4Iuq_kU-10" value="Ship.count &amp;gt; 0" style="rhombus;whiteSpace=wrap;html=1;" vertex="1" parent="WIyWlLk6GJQsqaUBKTNV-1">
          <mxGeometry x="380" y="260" width="100" height="60" as="geometry" />
        </mxCell>
        <mxCell id="a4lBw5MX-ri9Q4Iuq_kU-18" value="" style="edgeStyle=orthogonalEdgeStyle;rounded=0;orthogonalLoop=1;jettySize=auto;html=1;" edge="1" parent="WIyWlLk6GJQsqaUBKTNV-1" source="a4lBw5MX-ri9Q4Iuq_kU-11" target="a4lBw5MX-ri9Q4Iuq_kU-17">
          <mxGeometry relative="1" as="geometry" />
        </mxCell>
        <mxCell id="a4lBw5MX-ri9Q4Iuq_kU-11" value="notingAll()&lt;br&gt;Added ship in tunnel" style="whiteSpace=wrap;html=1;" vertex="1" parent="WIyWlLk6GJQsqaUBKTNV-1">
          <mxGeometry x="540" y="260" width="120" height="60" as="geometry" />
        </mxCell>
        <mxCell id="a4lBw5MX-ri9Q4Iuq_kU-21" value="" style="edgeStyle=orthogonalEdgeStyle;rounded=0;orthogonalLoop=1;jettySize=auto;html=1;" edge="1" parent="WIyWlLk6GJQsqaUBKTNV-1" source="a4lBw5MX-ri9Q4Iuq_kU-17" target="a4lBw5MX-ri9Q4Iuq_kU-20">
          <mxGeometry relative="1" as="geometry" />
        </mxCell>
        <mxCell id="a4lBw5MX-ri9Q4Iuq_kU-23" value="" style="edgeStyle=orthogonalEdgeStyle;rounded=0;orthogonalLoop=1;jettySize=auto;html=1;" edge="1" parent="WIyWlLk6GJQsqaUBKTNV-1" source="a4lBw5MX-ri9Q4Iuq_kU-17" target="a4lBw5MX-ri9Q4Iuq_kU-22">
          <mxGeometry relative="1" as="geometry" />
        </mxCell>
        <mxCell id="a4lBw5MX-ri9Q4Iuq_kU-25" value="" style="edgeStyle=orthogonalEdgeStyle;rounded=0;orthogonalLoop=1;jettySize=auto;html=1;" edge="1" parent="WIyWlLk6GJQsqaUBKTNV-1" source="a4lBw5MX-ri9Q4Iuq_kU-17" target="a4lBw5MX-ri9Q4Iuq_kU-24">
          <mxGeometry relative="1" as="geometry">
            <Array as="points">
              <mxPoint x="740" y="370" />
            </Array>
          </mxGeometry>
        </mxCell>
        <mxCell id="a4lBw5MX-ri9Q4Iuq_kU-17" value="check type and size ship" style="rhombus;whiteSpace=wrap;html=1;" vertex="1" parent="WIyWlLk6GJQsqaUBKTNV-1">
          <mxGeometry x="540" y="340" width="120" height="60" as="geometry" />
        </mxCell>
        <mxCell id="a4lBw5MX-ri9Q4Iuq_kU-20" value="Loading хлеб&lt;br&gt;10шт/с * size&lt;br&gt;" style="whiteSpace=wrap;html=1;" vertex="1" parent="WIyWlLk6GJQsqaUBKTNV-1">
          <mxGeometry x="400" y="440" width="120" height="60" as="geometry" />
        </mxCell>
        <mxCell id="a4lBw5MX-ri9Q4Iuq_kU-22" value="Loading бананы&lt;br style=&quot;border-color: var(--border-color);&quot;&gt;10шт/с * size" style="whiteSpace=wrap;html=1;" vertex="1" parent="WIyWlLk6GJQsqaUBKTNV-1">
          <mxGeometry x="540" y="440" width="120" height="60" as="geometry" />
        </mxCell>
        <mxCell id="a4lBw5MX-ri9Q4Iuq_kU-24" value="Loading одежда&lt;br style=&quot;border-color: var(--border-color);&quot;&gt;10шт/с * size" style="whiteSpace=wrap;html=1;" vertex="1" parent="WIyWlLk6GJQsqaUBKTNV-1">
          <mxGeometry x="680" y="440" width="120" height="60" as="geometry" />
        </mxCell>
        <mxCell id="a4lBw5MX-ri9Q4Iuq_kU-27" value="wait()" style="rounded=0;whiteSpace=wrap;html=1;" vertex="1" parent="WIyWlLk6GJQsqaUBKTNV-1">
          <mxGeometry x="240" y="260" width="120" height="60" as="geometry" />
        </mxCell>
        <mxCell id="a4lBw5MX-ri9Q4Iuq_kU-31" value="" style="edgeStyle=orthogonalEdgeStyle;rounded=0;orthogonalLoop=1;jettySize=auto;html=1;entryX=0.5;entryY=0;entryDx=0;entryDy=0;" edge="1" parent="WIyWlLk6GJQsqaUBKTNV-1" source="a4lBw5MX-ri9Q4Iuq_kU-28" target="WIyWlLk6GJQsqaUBKTNV-3">
          <mxGeometry relative="1" as="geometry">
            <Array as="points">
              <mxPoint x="90" y="180" />
              <mxPoint x="90" y="50" />
              <mxPoint x="370" y="50" />
            </Array>
          </mxGeometry>
        </mxCell>
        <mxCell id="a4lBw5MX-ri9Q4Iuq_kU-28" value="wait()" style="whiteSpace=wrap;html=1;rounded=1;glass=0;strokeWidth=1;shadow=0;" vertex="1" parent="WIyWlLk6GJQsqaUBKTNV-1">
          <mxGeometry x="180" y="150" width="120" height="60" as="geometry" />
        </mxCell>
        <mxCell id="a4lBw5MX-ri9Q4Iuq_kU-30" value="" style="shape=waypoint;sketch=0;size=6;pointerEvents=1;points=[];fillColor=default;resizable=0;rotatable=0;perimeter=centerPerimeter;snapToPoint=1;rounded=1;glass=0;strokeWidth=1;shadow=0;" vertex="1" parent="WIyWlLk6GJQsqaUBKTNV-1">
          <mxGeometry x="30" y="170" width="20" height="20" as="geometry" />
        </mxCell>
      </root>
    </mxGraphModel>
  </diagram>
</mxfile>
